<svg width="300" height="300" viewBox="0 0 300 300" fill="none" xmlns="http://www.w3.org/2000/svg">
<g id="Frame 2" clip-path="url(#clip0_2_17)">
<rect width="300" height="300" fill="white"/>
<g id="SunRays">
<g id="Group">
<path id="Vector" d="M149.831 60.1379C146.171 60.1379 143.201 57.1677 143.201 53.508V14.2892C143.201 10.6295 146.171 7.65935 149.831 7.65935C153.491 7.65935 156.461 10.6295 156.461 14.2892V53.508C156.461 57.1677 153.491 60.1379 149.831 60.1379Z" fill="black"/>
<path id="Vector_2" d="M149.831 295.002C146.171 295.002 143.201 292.032 143.201 288.372V249.157C143.201 245.497 146.171 242.527 149.831 242.527C153.491 242.527 156.461 245.497 156.461 249.157V288.372C156.461 292.032 153.491 295.002 149.831 295.002Z" fill="black"/>
<path id="Vector_3" d="M50.508 156.461H11.2892C7.62952 156.461 4.65935 153.491 4.65935 149.831C4.65935 146.171 7.62952 143.201 11.2892 143.201H50.508C54.1677 143.201 57.1379 146.171 57.1379 149.831C57.1379 153.491 54.1677 156.461 50.508 156.461Z" fill="black"/>
<path id="Vector_4" d="M288.372 156.461H249.157C245.497 156.461 242.527 153.491 242.527 149.831C242.527 146.171 245.497 143.201 249.157 143.201H288.372C292.032 143.201 295.002 146.171 295.002 149.831C295.002 153.491 292.032 156.461 288.372 156.461Z" fill="black"/>
<path id="Vector_5" d="M226.892 79.3998C225.194 79.3998 223.501 78.7534 222.204 77.4572C219.615 74.8683 219.615 70.6716 222.204 68.0826L249.934 40.35C252.523 37.7611 256.719 37.7611 259.308 40.35C261.897 42.939 261.897 47.1357 259.308 49.7246L231.579 77.4572C230.283 78.7534 228.589 79.3998 226.892 79.3998Z" fill="black"/>
<path id="Vector_6" d="M44.0373 262.251C42.3401 262.251 40.6428 261.604 39.35 260.308C36.7611 257.719 36.7611 253.523 39.35 250.934L67.0826 223.204C69.6683 220.615 73.8716 220.615 76.4572 223.204C79.0462 225.793 79.0462 229.99 76.4572 232.579L48.7246 260.308C47.4318 261.604 45.7345 262.251 44.0373 262.251Z" fill="black"/>
<path id="Vector_7" d="M72.7699 79.3998C71.0727 79.3998 69.3755 78.7534 68.0826 77.4572L40.35 49.7246C37.7611 47.1357 37.7611 42.939 40.35 40.35C42.9356 37.7611 47.139 37.7611 49.7246 40.35L77.4572 68.0826C80.0462 70.6716 80.0462 74.8683 77.4572 77.4572C76.1644 78.7534 74.4672 79.3998 72.7699 79.3998Z" fill="black"/>
<path id="Vector_8" d="M255.621 262.251C253.924 262.251 252.23 261.604 250.934 260.308L223.204 232.579C220.615 229.99 220.615 225.793 223.204 223.204C225.793 220.615 229.99 220.615 232.579 223.204L260.308 250.934C262.897 253.523 262.897 257.719 260.308 260.308C259.016 261.604 257.318 262.251 255.621 262.251Z" fill="black"/>
</g>
</g>
<path id="SunShape" d="M271 150.5C271 217.028 216.849 271 150 271C83.1512 271 29 217.028 29 150.5C29 83.972 83.1512 30 150 30C216.849 30 271 83.972 271 150.5Z" fill="white" stroke="black" stroke-width="12"/>
</g>
<defs>
<clipPath id="clip0_2_17">
<rect width="300" height="300" fill="white"/>
</clipPath>
</defs>
</svg>
